<svg width="900" height="900" viewBox="0 0 900 900" fill="none" xmlns="http://www.w3.org/2000/svg">
<rect width="900" height="900" rx="24" fill="#FFB7AF"/>
<circle cx="438.165" cy="462.248" r="214.7" fill="white" stroke="#282F34" stroke-width="6"/>
<path d="M199.378 379.258L296.765 413.693" stroke="#282F34" stroke-width="6" stroke-linecap="round" stroke-linejoin="round"/>
<line x1="421.802" y1="373.614" x2="546.953" y2="414.204" stroke="#282F34" stroke-width="6" stroke-linecap="round" stroke-linejoin="round"/>
<line x1="3" y1="-3" x2="134.568" y2="-3" transform="matrix(-0.951223 0.308505 0.308505 0.951223 426.275 375.542)" stroke="#282F34" stroke-width="6" stroke-linecap="round" stroke-linejoin="round"/>
<line x1="628.315" y1="337.106" x2="546.047" y2="413.426" stroke="#282F34" stroke-width="6" stroke-linecap="round" stroke-linejoin="round"/>
<rect x="272.025" y="389.646" width="47.6667" height="47.6667" rx="23.8334" fill="#FF825A" stroke="white" stroke-width="6"/>
<rect x="400.339" y="356.68" width="36.0517" height="36.0517" rx="18.0258" fill="#FF825A" stroke="white" stroke-width="6"/>
<rect x="534.238" y="398.727" width="28.378" height="28.378" rx="14.189" fill="#FF825A" stroke="white" stroke-width="6"/>
<rect x="596.669" y="316.998" width="53.3506" height="53.3506" rx="26.6753" fill="#FF825A" stroke="white" stroke-width="6"/>
<circle cx="190.297" cy="373.754" r="19.297" transform="rotate(90 190.297 373.754)" fill="#FF825A" stroke="white" stroke-width="6"/>
<path d="M347.187 576.935C350.971 571.974 356.852 569.063 363.09 569.063H505.491C511.216 569.063 516.667 571.517 520.462 575.802L608.652 675.363C620.084 688.269 610.922 708.625 593.681 708.625H287.162C270.607 708.625 261.22 689.66 271.259 676.496L347.187 576.935Z" fill="#FFB200" stroke="#282F34" stroke-width="6"/>
<rect width="66.0263" height="82.0867" rx="33.0131" transform="matrix(-1 0 0 1 471.697 512.587)" fill="white" stroke="#282F34" stroke-width="6"/>
<rect width="59.745" height="74.3494" rx="29.8725" transform="matrix(-1 0 0 1 468.83 495.324)" fill="#282F34"/>
<rect width="33.9054" height="30.3364" rx="15.1682" transform="matrix(-1 0 0 1 521.663 437.638)" fill="white" stroke="#282F34" stroke-width="6"/>
<rect width="33.9054" height="30.3364" rx="15.1682" transform="matrix(-1 0 0 1 391.394 437.638)" fill="white" stroke="#282F34" stroke-width="6"/>
<rect width="126.699" height="180.234" rx="63.3495" transform="matrix(-1 0 0 1 502.033 368.043)" fill="white" stroke="#282F34" stroke-width="6"/>
<path d="M402.672 355.782C438.824 351.045 469.932 398.661 446.391 396.979C410.559 399.194 412.761 396.979 393.687 401.987C387.192 403.692 375.625 424.17 374.597 432.291C355.641 402.866 377.356 359.1 402.672 355.782Z" fill="white" stroke="#282F34" stroke-width="6"/>
<path d="M438.202 351.28C410.098 357.107 404.734 370.872 406.039 380.541C409.43 405.681 440.091 410.364 451.456 413.486C460.548 415.983 497.095 410.939 502.261 420.998C513.627 374.173 473.331 343.996 438.202 351.28Z" fill="white" stroke="#282F34" stroke-width="6"/>
<path d="M423.335 501.553C428.433 504.957 442.089 509.703 455.929 501.459" stroke="#282F34" stroke-width="6" stroke-linecap="round"/>
<path d="M436.413 464.734V474.448C436.413 476.651 436.413 482.589 441.932 482.589" stroke="#282F34" stroke-width="6" stroke-linecap="round"/>
<path d="M405.52 441.52C408.265 439.268 414.739 437.375 418.573 439.975" stroke="#282F34" stroke-width="6" stroke-linecap="round"/>
<path d="M472.958 440.754C469.967 438.841 463.316 437.722 459.814 440.754" stroke="#282F34" stroke-width="6" stroke-linecap="round"/>
<line x1="464.444" y1="456.435" x2="464.444" y2="462.06" stroke="#282F34" stroke-width="12" stroke-linecap="round"/>
<line x1="411.57" y1="456.435" x2="411.57" y2="462.06" stroke="#282F34" stroke-width="12" stroke-linecap="round"/>
<path fill-rule="evenodd" clip-rule="evenodd" d="M305.517 303.072C292.246 294.105 284.287 278.451 287.089 261.218C290.123 242.592 306.362 227.724 325.948 225.53C353.135 222.48 376.204 242.713 376.204 268.091C376.204 282.559 368.686 295.327 357.2 303.086C355.138 304.479 353.785 306.637 353.785 309.052V328.821C353.785 338.688 345.423 346.683 335.103 346.683H327.63C317.31 346.683 308.948 338.688 308.948 328.821V309.081C308.948 306.644 307.587 304.472 305.517 303.072Z" fill="white" stroke="#282F34" stroke-width="6"/>
<path d="M376.457 221.462L385.351 212.567" stroke="#282F34" stroke-width="6" stroke-linecap="round" stroke-linejoin="round"/>
<path d="M271.699 296.164L262.805 305.058" stroke="#282F34" stroke-width="6" stroke-linecap="round" stroke-linejoin="round"/>
<path d="M279.174 225.497L270.279 216.602" stroke="#282F34" stroke-width="6" stroke-linecap="round" stroke-linejoin="round"/>
<path d="M331.476 203.579V191" stroke="#282F34" stroke-width="6" stroke-linecap="round" stroke-linejoin="round"/>
<path d="M391.287 296.164L400.181 305.058" stroke="#282F34" stroke-width="6" stroke-linecap="round" stroke-linejoin="round"/>
<path d="M251.594 257.835H264.225" stroke="#282F34" stroke-width="6" stroke-linecap="round" stroke-linejoin="round"/>
<path fill-rule="evenodd" clip-rule="evenodd" d="M310.367 319.772H354.241H310.367Z" fill="white"/>
<path d="M310.367 319.772H354.241" stroke="#282F34" stroke-width="6"/>
<circle cx="332.047" cy="267.047" r="30.0468" fill="#84B229"/>
<path fill-rule="evenodd" clip-rule="evenodd" d="M554.671 517.815C554.671 519.279 555.59 520.584 556.967 521.079L561.875 522.841C562.647 523.121 563.295 523.663 563.706 524.374L566.724 529.601C567.133 530.311 567.278 531.143 567.133 531.949L566.207 537.082C565.945 538.524 566.617 539.974 567.886 540.707L572.672 543.482C573.937 544.216 575.528 544.077 576.647 543.135L580.629 539.767C581.255 539.236 582.049 538.945 582.869 538.945L588.904 538.945C589.725 538.945 590.519 539.236 591.145 539.767L595.127 543.135C596.246 544.077 597.836 544.216 599.101 543.482L603.888 540.707C605.155 539.975 605.827 538.526 605.566 537.086L604.64 531.952C604.495 531.146 604.64 530.314 605.05 529.604L608.067 524.377C608.478 523.667 609.127 523.124 609.899 522.844L614.806 521.082C616.185 520.587 617.104 519.28 617.102 517.815L617.102 512.266C617.102 510.802 616.184 509.497 614.806 509.002L609.899 507.24C609.128 506.96 608.48 506.419 608.067 505.71L605.05 500.48C604.64 499.77 604.495 498.938 604.64 498.132L605.566 492.999C605.829 491.557 605.157 490.107 603.888 489.374L599.101 486.599C597.836 485.865 596.246 486.004 595.127 486.946L591.145 490.314C590.519 490.845 589.725 491.136 588.904 491.136L582.869 491.136C582.049 491.136 581.255 490.845 580.629 490.314L576.647 486.981C575.528 486.039 573.937 485.9 572.672 486.634L567.886 489.409C566.618 490.141 565.946 491.59 566.207 493.03L567.133 498.163C567.278 498.97 567.133 499.801 566.724 500.511L563.706 505.742C563.294 506.45 562.646 506.992 561.875 507.271L556.967 509.033C555.6 509.524 554.684 510.814 554.671 512.266L554.671 517.815Z" fill="#FA8148" stroke="#282F34" stroke-width="6"/>
<circle r="11.9215" transform="matrix(-4.37114e-08 1 1 4.37114e-08 585.886 515.042)" fill="white" stroke="#282F34" stroke-width="6"/>
<path fill-rule="evenodd" clip-rule="evenodd" d="M472.942 264.786C472.942 266.569 474.062 268.159 475.739 268.762L481.718 270.908C482.658 271.249 483.448 271.91 483.949 272.776L487.625 279.143C488.124 280.008 488.3 281.021 488.123 282.003L486.995 288.257C486.676 290.013 487.494 291.78 489.04 292.672L494.871 296.052C496.413 296.947 498.35 296.778 499.713 295.63L504.564 291.527C505.326 290.881 506.293 290.526 507.293 290.526L514.645 290.526C515.644 290.526 516.612 290.881 517.374 291.527L522.225 295.63C523.588 296.778 525.525 296.947 527.067 296.052L532.897 292.672C534.442 291.78 535.26 290.016 534.942 288.261L533.814 282.008C533.637 281.025 533.814 280.012 534.313 279.147L537.989 272.78C538.49 271.914 539.28 271.253 540.22 270.912L546.198 268.766C547.878 268.163 548.997 266.57 548.995 264.786L548.995 258.026C548.995 256.243 547.876 254.652 546.198 254.05L540.22 251.903C539.281 251.563 538.491 250.903 537.989 250.04L534.313 243.669C533.814 242.804 533.637 241.791 533.814 240.808L534.942 234.555C535.262 232.799 534.443 231.032 532.897 230.14L527.067 226.759C525.525 225.865 523.588 226.034 522.225 227.182L517.374 231.285C516.612 231.931 515.644 232.286 514.645 232.286L507.293 232.286C506.293 232.286 505.326 231.931 504.564 231.285L499.713 227.224C498.35 226.076 496.413 225.907 494.871 226.802L489.04 230.182C487.496 231.073 486.678 232.838 486.995 234.593L488.123 240.846C488.3 241.829 488.124 242.842 487.625 243.707L483.949 250.078C483.447 250.941 482.657 251.601 481.718 251.941L475.739 254.088C474.075 254.686 472.959 256.257 472.942 258.026L472.942 264.786Z" fill="#FFC18F" stroke="#282F34" stroke-width="6"/>
<circle r="14.5226" transform="matrix(-4.37114e-08 1 1 4.37114e-08 510.968 261.407)" fill="white" stroke="#282F34" stroke-width="6"/>
<path fill-rule="evenodd" clip-rule="evenodd" d="M274.019 519.055C274.019 521.409 272.541 523.509 270.325 524.305L262.431 527.139C261.19 527.588 260.147 528.462 259.486 529.604L254.632 538.012C253.973 539.154 253.74 540.492 253.974 541.789L255.463 550.045C255.885 552.364 254.804 554.697 252.763 555.875L245.064 560.339C243.029 561.52 240.471 561.296 238.671 559.781L232.266 554.364C231.259 553.51 229.982 553.042 228.662 553.041L218.955 553.041C217.635 553.042 216.358 553.51 215.351 554.364L208.947 559.781C207.146 561.296 204.589 561.52 202.553 560.339L194.854 555.875C192.815 554.698 191.735 552.368 192.154 550.051L193.644 541.794C193.877 540.497 193.644 539.159 192.985 538.017L188.132 529.61C187.47 528.467 186.427 527.594 185.186 527.144L177.292 524.31C175.075 523.514 173.597 521.411 173.599 519.055L173.599 510.129C173.599 507.775 175.077 505.674 177.292 504.879L185.186 502.045C186.426 501.595 187.468 500.724 188.132 499.585L192.985 491.172C193.644 490.03 193.877 488.692 193.644 487.395L192.154 479.138C191.733 476.819 192.813 474.486 194.854 473.308L202.553 468.845C204.589 467.664 207.146 467.887 208.947 469.403L215.351 474.82C216.358 475.673 217.635 476.142 218.955 476.142L228.662 476.142C229.982 476.142 231.259 475.673 232.266 474.82L238.671 469.459C240.471 467.943 243.029 467.72 245.064 468.901L252.763 473.364C254.802 474.541 255.882 476.871 255.463 479.188L253.974 487.445C253.74 488.742 253.973 490.08 254.632 491.222L259.486 499.635C260.149 500.775 261.191 501.645 262.431 502.095L270.325 504.929C272.523 505.718 273.997 507.793 274.019 510.129L274.019 519.055Z" fill="#00AAD3" stroke="#282F34" stroke-width="6"/>
<circle cx="223.81" cy="514.594" r="19.1755" transform="rotate(90 223.81 514.594)" fill="white" stroke="#282F34" stroke-width="6"/>
<path fill-rule="evenodd" clip-rule="evenodd" d="M610.292 450.177C610.292 452.964 612.042 455.452 614.666 456.394L624.015 459.751C625.485 460.284 626.721 461.318 627.504 462.671L633.252 472.629C634.032 473.981 634.309 475.565 634.032 477.102L632.268 486.881C631.768 489.627 633.048 492.39 635.466 493.786L644.584 499.071C646.995 500.47 650.024 500.206 652.156 498.411L659.741 491.995C660.934 490.984 662.446 490.43 664.01 490.429L675.507 490.429C677.07 490.43 678.582 490.984 679.775 491.995L687.36 498.411C689.492 500.206 692.522 500.47 694.932 499.071L704.05 493.786C706.465 492.391 707.745 489.631 707.248 486.887L705.484 477.108C705.208 475.572 705.484 473.987 706.264 472.635L712.012 462.678C712.796 461.324 714.031 460.29 715.501 459.757L724.851 456.401C727.476 455.458 729.227 452.967 729.225 450.177L729.225 439.605C729.225 436.817 727.474 434.33 724.851 433.387L715.501 430.031C714.033 429.498 712.798 428.467 712.012 427.117L706.264 417.153C705.484 415.801 705.208 414.216 705.484 412.68L707.248 402.901C707.748 400.155 706.468 397.391 704.05 395.996L694.932 390.71C692.522 389.311 689.492 389.576 687.36 391.371L679.775 397.787C678.582 398.797 677.07 399.352 675.507 399.353L664.01 399.353C662.446 399.352 660.934 398.797 659.741 397.787L652.156 391.437C650.024 389.642 646.995 389.377 644.584 390.776L635.466 396.062C633.051 397.456 631.771 400.216 632.268 402.96L634.032 412.739C634.309 414.276 634.032 415.86 633.252 417.212L627.504 427.176C626.718 428.526 625.483 429.558 624.015 430.09L614.666 433.447C612.062 434.382 610.317 436.839 610.292 439.605L610.292 450.177Z" fill="#C76C62" stroke="#282F34" stroke-width="6"/>
<circle r="22.7107" transform="matrix(-4.37114e-08 1 1 4.37114e-08 669.756 444.893)" fill="white" stroke="#282F34" stroke-width="6"/>
</svg>
