<svg width="900" height="900" viewBox="0 0 900 900" fill="none" xmlns="http://www.w3.org/2000/svg">
<rect width="900" height="900" rx="24" fill="#6164D9"/>
<path fill-rule="evenodd" clip-rule="evenodd" d="M189 307.998C166.909 307.998 149 325.906 149 347.998V436.264C149 458.356 166.909 476.264 189 476.264H202.876C210.833 476.264 218.463 479.425 224.089 485.051L228.805 489.767C231.929 492.891 236.994 492.891 240.119 489.767L244.834 485.051C250.46 479.425 258.091 476.264 266.047 476.264H281.292C303.384 476.264 321.292 458.356 321.292 436.264V347.998C321.292 325.906 303.384 307.998 281.292 307.998H189Z" fill="#FFB200"/>
<path d="M228.805 489.767L226.684 491.888L228.805 489.767ZM240.119 489.767L242.24 491.888L240.119 489.767ZM224.089 485.051L221.968 487.173L224.089 485.051ZM152 347.998C152 327.563 168.565 310.998 189 310.998V304.998C165.252 304.998 146 324.249 146 347.998H152ZM152 436.264V347.998H146V436.264H152ZM189 473.264C168.565 473.264 152 456.699 152 436.264H146C146 460.013 165.252 479.264 189 479.264V473.264ZM202.876 473.264H189V479.264H202.876V473.264ZM230.926 487.645L226.211 482.93L221.968 487.173L226.684 491.888L230.926 487.645ZM237.997 487.645C236.045 489.598 232.879 489.598 230.926 487.645L226.684 491.888C230.979 496.184 237.944 496.184 242.24 491.888L237.997 487.645ZM242.713 482.93L237.997 487.645L242.24 491.888L246.955 487.173L242.713 482.93ZM281.292 473.264H266.047V479.264H281.292V473.264ZM318.292 436.264C318.292 456.699 301.727 473.264 281.292 473.264V479.264C305.041 479.264 324.292 460.013 324.292 436.264H318.292ZM318.292 347.998V436.264H324.292V347.998H318.292ZM281.292 310.998C301.727 310.998 318.292 327.563 318.292 347.998H324.292C324.292 324.249 305.041 304.998 281.292 304.998V310.998ZM189 310.998H281.292V304.998H189V310.998ZM246.955 487.173C252.019 482.109 258.887 479.264 266.047 479.264V473.264C257.295 473.264 248.902 476.741 242.713 482.93L246.955 487.173ZM202.876 479.264C210.037 479.264 216.905 482.109 221.968 487.173L226.211 482.93C220.022 476.741 211.628 473.264 202.876 473.264V479.264Z" fill="#282F34"/>
<rect x="219.408" y="354.517" width="73.8524" height="14.6484" rx="7.3242" fill="white"/>
<rect x="177.686" y="379.626" width="115.214" height="14.7981" rx="7.39906" fill="white"/>
<rect x="177.686" y="404.8" width="115.214" height="14.7981" rx="7.39906" fill="white"/>
<rect x="177.686" y="429.974" width="115.214" height="14.7981" rx="7.39906" fill="white"/>
<circle cx="192.748" cy="354.188" r="15.0624" fill="white"/>
<rect x="299" y="590" width="128" height="80" rx="40" transform="rotate(-180 299 590)" fill="#75B5A0" stroke="#282F34" stroke-width="6"/>
<path d="M222.507 539.04L211.953 549.594L222.507 560.147" stroke="white" stroke-width="6" stroke-miterlimit="10" stroke-linecap="round" stroke-linejoin="round"/>
<path d="M248.231 539.04L259.444 549.594L248.231 560.147" stroke="white" stroke-width="6" stroke-miterlimit="10" stroke-linecap="round" stroke-linejoin="round"/>
<path d="M240.316 537.721L230.422 562.126" stroke="white" stroke-width="6" stroke-miterlimit="10" stroke-linecap="round" stroke-linejoin="round"/>
<rect x="574.209" y="592.943" width="252.916" height="49.6997" rx="24.8499" transform="rotate(-180 574.209 592.943)" fill="#FFB200" stroke="#282F34" stroke-width="6"/>
<rect x="405.229" y="663.7" width="187.755" height="49.6997" rx="24.8499" transform="rotate(-180 405.229 663.7)" fill="#F97C42" stroke="#282F34" stroke-width="6"/>
<rect x="749.814" y="616.136" width="154.621" height="40.8642" rx="20.4321" transform="rotate(-180 749.814 616.136)" fill="#F59203" stroke="#282F34" stroke-width="6"/>
<rect x="585.253" y="663.7" width="154.621" height="40.8642" rx="20.4321" transform="rotate(-180 585.253 663.7)" fill="#FFC18F" stroke="#282F34" stroke-width="6"/>
<path d="M750.919 458.753C750.919 436.827 742.395 415.76 727.149 400.003C711.903 384.245 691.128 375.032 669.214 374.31C647.3 373.587 625.963 381.412 609.712 396.131C593.461 410.849 583.568 431.309 582.123 453.188C580.679 475.066 587.796 496.649 601.972 513.376C616.147 530.104 636.27 540.666 658.089 542.83C679.907 544.995 701.713 538.592 718.899 524.976C736.084 511.36 747.303 491.596 750.186 469.86L666.429 458.753H750.919Z" fill="#75B5A0" stroke="#282F34" stroke-width="6"/>
<path d="M742.479 493.206C742.982 493.433 743.575 493.21 743.797 492.705C750.727 476.915 752.662 459.374 749.329 442.44C745.997 425.505 737.56 410.006 725.164 398.018C724.767 397.635 724.134 397.653 723.755 398.054L667.392 457.734C666.92 458.233 667.081 459.048 667.706 459.332L742.479 493.206Z" fill="white" stroke="#282F34" stroke-width="6"/>
<path d="M725.466 399.717C725.856 399.327 725.856 398.693 725.461 398.307C713.882 386.998 699.291 379.248 683.423 375.99C667.554 372.732 651.091 374.106 635.992 379.937C635.477 380.136 635.227 380.718 635.432 381.231L665.866 457.345C666.133 458.012 666.994 458.188 667.502 457.681L725.466 399.717Z" fill="white" stroke="#282F34" stroke-width="6"/>
<path fill-rule="evenodd" clip-rule="evenodd" d="M596.136 299.939C594.879 297.842 594.879 295.299 596.136 293.203C611.28 267.998 639.255 246.149 667.23 246.149C695.205 246.149 723.18 267.998 738.324 293.21C739.581 295.307 739.581 297.85 738.324 299.946C723.18 325.151 695.205 347 667.23 347C639.255 347 611.28 325.151 596.136 299.939Z" fill="white" stroke="#282F34" stroke-width="6"/>
<path fill-rule="evenodd" clip-rule="evenodd" d="M698.435 278.88C696.197 285.068 690.27 289.489 683.31 289.489C674.429 289.489 667.23 282.29 667.23 273.41C667.23 268.72 669.238 264.499 672.441 261.559C661.574 260.007 650.123 263.338 641.761 271.551C627.695 285.365 627.695 307.764 641.761 321.579C655.827 335.393 678.633 335.393 692.699 321.579C704.483 310.005 706.395 292.408 698.435 278.88Z" fill="#F46F34"/>
<circle cx="460.817" cy="411.817" r="103.817" fill="white" stroke="#282F34" stroke-width="6"/>
<circle cx="460" cy="412.607" r="88" fill="#2EC275"/>
<path fill-rule="evenodd" clip-rule="evenodd" d="M444.642 334.211C419.646 382.255 419.646 444.299 444.642 492.343C451.959 506.413 469.024 506.413 476.341 492.343C501.338 444.299 501.338 382.255 476.341 334.211C469.016 320.142 451.959 320.142 444.642 334.211Z" stroke="white" stroke-width="10" stroke-linecap="round" stroke-linejoin="round"/>
<path d="M382.763 375.763C430.328 390.455 490.571 390.455 538.126 375.763" stroke="white" stroke-width="10" stroke-linecap="round" stroke-linejoin="round"/>
<path d="M538.141 456.309C490.576 441.618 430.333 441.618 382.778 456.309" stroke="white" stroke-width="10" stroke-linecap="round" stroke-linejoin="round"/>
<path fill-rule="evenodd" clip-rule="evenodd" d="M568.438 286.804C582.241 286.804 575.783 264.86 558.296 270.101C557.328 239.631 507.791 217.336 487.307 258.434C481.516 253.839 468.511 262.518 471.391 270.101C464.958 270.651 459.897 271.397 455.96 272.385C446.868 274.667 448.668 286.701 458.039 286.617L568.438 286.804Z" fill="#FFC18F" stroke="#282F34" stroke-width="6"/>
<path fill-rule="evenodd" clip-rule="evenodd" d="M292.713 282C304.333 282 298.896 263.426 284.174 267.863C283.359 242.073 241.654 223.203 224.409 257.988C219.533 254.099 208.585 261.444 211.009 267.863C205.593 268.328 201.333 268.96 198.018 269.796C190.363 271.727 191.879 281.913 199.768 281.842L292.713 282Z" fill="#FFC18F" stroke="#282F34" stroke-width="6"/>
<line x1="3" y1="-3" x2="37.1935" y2="-3" transform="matrix(-0.707107 0.707107 0.707107 0.707107 376.459 294.115)" stroke="#282F34" stroke-width="6" stroke-linecap="round"/>
<line x1="3" y1="-3" x2="15.422" y2="-3" transform="matrix(-0.707107 0.707107 0.707107 0.707107 357.511 290.562)" stroke="#282F34" stroke-width="6" stroke-linecap="round"/>
</svg>
