<svg width="900" height="900" viewBox="0 0 900 900" fill="none" xmlns="http://www.w3.org/2000/svg">
<rect width="900" height="900" rx="24" fill="#FF5000"/>
<rect x="101" y="204" width="700" height="491" rx="40" fill="white" stroke="#282F34" stroke-width="6"/>
<line x1="100" y1="266.041" x2="801" y2="266.041" stroke="#282F34" stroke-width="6"/>
<circle cx="149.986" cy="235.716" r="11.9015" fill="white" stroke="#282F34" stroke-width="6"/>
<circle cx="185.691" cy="235.716" r="11.9015" fill="white" stroke="#282F34" stroke-width="6"/>
<circle cx="221.396" cy="235.716" r="11.9015" fill="white" stroke="#282F34" stroke-width="6"/>
<rect x="416" y="421" width="89" height="165" rx="30" fill="#F57337"/>
<rect x="531" y="376" width="88" height="210" rx="30" fill="#FFB200"/>
<rect x="411" y="615" width="323" height="24" rx="12" fill="white" stroke="#282F34" stroke-width="6"/>
<rect x="645" y="325" width="89" height="261" rx="30" fill="#00AAD3"/>
<rect x="172" y="562" width="184" height="24" rx="12" fill="white" stroke="#282F34" stroke-width="6"/>
<rect x="172" y="615" width="184" height="24" rx="12" fill="white" stroke="#282F34" stroke-width="6"/>
<path fill-rule="evenodd" clip-rule="evenodd" d="M503.532 358.967H497.88C496.513 358.967 495.413 357.855 495.413 356.5V350.848C495.413 349.481 496.525 348.381 497.88 348.381H503.532C504.888 348.381 505.999 349.493 505.999 350.848V356.5C506.011 357.855 504.899 358.967 503.532 358.967Z" fill="#DADADA"/>
<path fill-rule="evenodd" clip-rule="evenodd" d="M483.935 358.967H478.283C476.928 358.967 475.816 357.855 475.816 356.5V350.848C475.816 349.481 476.928 348.381 478.283 348.381H483.935C485.29 348.381 486.402 349.493 486.402 350.848V356.5C486.402 357.855 485.29 358.967 483.935 358.967Z" fill="#DADADA"/>
<path fill-rule="evenodd" clip-rule="evenodd" d="M464.326 358.967H458.674C457.319 358.967 456.207 357.855 456.207 356.5V350.848C456.207 349.481 457.319 348.381 458.674 348.381H464.326C465.681 348.381 466.793 349.493 466.793 350.848V356.5C466.805 357.855 465.693 358.967 464.326 358.967Z" fill="#DADADA"/>
<path fill-rule="evenodd" clip-rule="evenodd" d="M444.728 358.967H439.076C437.721 358.967 436.609 357.855 436.609 356.5V350.848C436.609 349.481 437.721 348.381 439.076 348.381H444.728C446.095 348.381 447.207 349.493 447.207 350.848V356.5C447.195 357.855 446.083 358.967 444.728 358.967Z" fill="#DADADA"/>
<path fill-rule="evenodd" clip-rule="evenodd" d="M425.131 358.967H419.479C418.112 358.967 417 357.855 417 356.5V350.848C417 349.481 418.112 348.381 419.479 348.381H425.131C426.486 348.381 427.598 349.493 427.598 350.848V356.5C427.598 357.855 426.486 358.967 425.131 358.967Z" fill="#DADADA"/>
<path fill-rule="evenodd" clip-rule="evenodd" d="M483.216 337.598H477.564C476.209 337.598 475.097 336.486 475.097 335.131V329.467C475.097 328.112 476.209 327 477.564 327H483.216C484.583 327 485.684 328.112 485.684 329.467V335.119C485.695 336.486 484.583 337.598 483.216 337.598Z" fill="#DADADA"/>
<path fill-rule="evenodd" clip-rule="evenodd" d="M463.62 337.598H457.968C456.612 337.598 455.5 336.486 455.5 335.131V329.467C455.5 328.112 456.612 327 457.968 327H463.62C464.975 327 466.087 328.112 466.087 329.467V335.119C466.098 336.486 464.987 337.598 463.62 337.598Z" fill="#DADADA"/>
<path fill-rule="evenodd" clip-rule="evenodd" d="M444.022 337.598H438.369C437.003 337.598 435.891 336.486 435.891 335.131V329.467C435.891 328.112 437.003 327 438.369 327H444.022C445.377 327 446.489 328.112 446.489 329.467V335.119C446.489 336.486 445.377 337.598 444.022 337.598Z" fill="#DADADA"/>
<path fill-rule="evenodd" clip-rule="evenodd" d="M464.326 381.924H458.674C457.319 381.924 456.207 380.812 456.207 379.457V373.805C456.207 372.438 457.319 371.338 458.674 371.338H464.326C465.681 371.338 466.793 372.449 466.793 373.805V379.457C466.805 380.812 465.693 381.924 464.326 381.924Z" fill="#DADADA"/>
<path fill-rule="evenodd" clip-rule="evenodd" d="M444.728 381.924H439.076C437.721 381.924 436.609 380.812 436.609 379.457V373.805C436.609 372.438 437.721 371.338 439.076 371.338H444.728C446.095 371.338 447.207 372.449 447.207 373.805V379.457C447.195 380.812 446.083 381.924 444.728 381.924Z" fill="#DADADA"/>
<path d="M263.991 343.97C314.796 343.97 355.981 385.156 355.981 435.961C355.981 486.766 314.796 527.951 263.991 527.951C213.186 527.951 172 486.766 172 435.961C172 385.156 213.186 343.97 263.991 343.97ZM263.991 497.688C298.082 497.688 325.718 470.052 325.718 435.961C325.718 401.869 298.082 374.233 263.991 374.233C229.899 374.233 202.263 401.869 202.263 435.961C202.263 470.052 229.899 497.688 263.991 497.688Z" fill="#666AF6" stroke="#282F34" stroke-width="6"/>
<path d="M363.697 447.219C364.211 447.421 364.792 447.167 364.988 446.651C371.324 429.967 372.673 411.793 368.859 394.345C364.973 376.571 355.904 360.348 342.799 347.728C329.693 335.108 313.14 326.657 295.232 323.445C277.652 320.292 259.541 322.325 243.109 329.286C242.6 329.502 242.369 330.092 242.59 330.598L278.825 413.611C278.931 413.854 279.129 414.045 279.376 414.142L363.697 447.219Z" fill="white" stroke="#282F34" stroke-width="6"/>
<path d="M163.363 454.114C162.813 454.163 162.407 454.649 162.462 455.199C163.994 470.428 169.303 485.039 177.913 497.706C186.524 510.373 198.158 520.685 211.755 527.712C212.245 527.966 212.847 527.766 213.095 527.273L253.183 447.596C253.535 446.896 252.981 446.081 252.2 446.151L163.363 454.114Z" fill="white" stroke="#282F34" stroke-width="6"/>
</svg>
