<svg width="900" height="900" viewBox="0 0 900 900" fill="none" xmlns="http://www.w3.org/2000/svg">
<rect width="900" height="900" rx="24" fill="#00CDDA"/>
<path d="M354.766 454.352C358.374 448.301 364.899 444.595 371.943 444.595H539.76C546.321 444.595 552.466 447.813 556.202 453.207L673.847 623.069C683.033 636.333 673.54 654.457 657.405 654.457H270.656C255.134 654.457 245.528 637.545 253.478 624.213L354.766 454.352Z" fill="#00B162" stroke="#282F34" stroke-width="6"/>
<rect width="67.6531" height="84.1092" rx="33.8265" transform="matrix(-1 0 0 1 495.483 387.132)" fill="white" stroke="#282F34" stroke-width="6"/>
<rect width="61.2171" height="76.1812" rx="30.6085" transform="matrix(-1 0 0 1 492.544 369.444)" fill="#282F34"/>
<rect width="34.7408" height="31.0838" rx="15.5419" transform="matrix(-1 0 0 1 546.68 310.337)" fill="white" stroke="#282F34" stroke-width="6"/>
<rect width="34.7408" height="31.0838" rx="15.5419" transform="matrix(-1 0 0 1 413.202 310.337)" fill="white" stroke="#282F34" stroke-width="6"/>
<rect width="129.821" height="184.675" rx="64.9104" transform="matrix(-1 0 0 1 526.566 239.027)" fill="white" stroke="#282F34" stroke-width="6"/>
<path d="M424.756 226.464C461.799 221.61 493.674 270.399 469.553 268.676C432.838 270.945 435.094 268.676 415.55 273.807C408.895 275.554 397.043 296.537 395.99 304.858C376.567 274.708 398.817 229.864 424.756 226.464Z" fill="white" stroke="#282F34" stroke-width="6"/>
<path d="M461.161 221.851C432.365 227.822 426.869 241.925 428.206 251.833C431.681 277.592 463.097 282.391 474.742 285.589C484.059 288.148 521.506 282.98 526.799 293.286C538.445 245.308 497.156 214.388 461.161 221.851Z" fill="white" stroke="#282F34" stroke-width="6"/>
<path d="M445.93 375.827C451.153 379.314 465.145 384.178 479.326 375.73" stroke="#282F34" stroke-width="6" stroke-linecap="round"/>
<path d="M459.328 338.101V348.054C459.328 350.311 459.328 356.395 464.984 356.395" stroke="#282F34" stroke-width="6" stroke-linecap="round"/>
<path d="M427.675 314.314C430.487 312.007 437.121 310.067 441.049 312.731" stroke="#282F34" stroke-width="6" stroke-linecap="round"/>
<path d="M496.774 313.529C493.71 311.569 486.895 310.422 483.307 313.529" stroke="#282F34" stroke-width="6" stroke-linecap="round"/>
<line x1="487.902" y1="329.449" x2="487.902" y2="335.508" stroke="#282F34" stroke-width="12" stroke-linecap="round"/>
<line x1="433.726" y1="329.449" x2="433.726" y2="335.508" stroke="#282F34" stroke-width="12" stroke-linecap="round"/>
<rect x="184.537" y="655.453" width="550.21" height="31.4405" rx="15.7203" fill="#FFC18F" stroke="#282F34" stroke-width="6"/>
<rect x="594.412" y="462.879" width="191.996" height="270.581" rx="40" transform="rotate(90 594.412 462.879)" fill="url(#paint0_linear_0_5)" stroke="#282F34" stroke-width="6"/>
<rect x="492.902" y="539.763" width="37.9105" height="67.4991" rx="18.9552" transform="rotate(90 492.902 539.763)" fill="white" stroke="#282F34" stroke-width="6"/>
<rect x="275.61" y="636.123" width="367.025" height="18.7531" rx="9.37656" fill="url(#paint1_linear_0_5)" stroke="#282F34" stroke-width="6"/>
<path d="M641.457 376C629.142 376 617.308 380.788 608.457 389.351C599.607 397.915 594.432 409.584 594.026 421.893C593.62 434.202 598.015 446.187 606.282 455.315C614.55 464.443 626.042 470 638.331 470.811C650.62 471.623 662.743 467.625 672.139 459.663C681.534 451.701 687.467 440.398 688.683 428.142C689.899 415.887 686.302 403.639 678.654 393.986C671.006 384.333 659.905 378.031 647.696 376.412L641.457 423.457L641.457 376Z" fill="#00B162" stroke="#282F34" stroke-width="6"/>
<path d="M660.628 381.14C660.856 380.637 660.633 380.043 660.126 379.826C651.361 376.076 641.663 375.049 632.294 376.893C622.926 378.737 614.339 383.362 607.649 390.153C607.261 390.546 607.28 391.18 607.682 391.559L640.438 422.495C640.937 422.966 641.752 422.806 642.036 422.18L660.628 381.14Z" fill="#FFC18F" stroke="#282F34" stroke-width="6"/>
<path d="M608.607 390.607C608.216 390.217 607.582 390.216 607.2 390.614C601.014 397.067 596.77 405.142 594.97 413.912C593.169 422.682 593.887 431.776 597.031 440.144C597.225 440.661 597.808 440.911 598.321 440.706L640.049 424.02C640.716 423.754 640.892 422.892 640.385 422.385L608.607 390.607Z" fill="white" stroke="#282F34" stroke-width="6"/>
<rect x="157.271" y="477.268" width="13.7827" height="13.7827" rx="6.89135" fill="#00B162"/>
<rect x="184.836" y="477.268" width="13.7827" height="13.7827" rx="6.89135" fill="#1BFF98"/>
<rect x="212.402" y="477.268" width="13.7827" height="13.7827" rx="6.89135" fill="#00B162"/>
<rect x="157.271" y="506.557" width="13.7827" height="13.7827" rx="6.89135" fill="#1BFF98"/>
<rect x="184.837" y="506.557" width="13.7827" height="13.7827" rx="6.89135" fill="#00B162"/>
<rect x="212.402" y="506.557" width="13.7827" height="13.7827" rx="6.89135" fill="#1BFF98"/>
<rect x="239.968" y="506.557" width="13.7827" height="13.7827" rx="6.89135" fill="#00B162"/>
<rect x="184.837" y="535.845" width="13.7827" height="13.7827" rx="6.89135" fill="#1BFF98"/>
<rect x="212.402" y="535.845" width="13.7827" height="13.7827" rx="6.89135" fill="#00B162"/>
<rect x="239.968" y="535.845" width="13.7827" height="13.7827" rx="6.89135" fill="#1BFF98"/>
<rect x="220" y="361" width="43" height="84" rx="20" fill="#FFB200" stroke="#282F34" stroke-width="6"/>
<rect x="157" y="397" width="43" height="46" rx="20" fill="#00DA78" stroke="#282F34" stroke-width="6"/>
<rect x="283" y="368" width="43" height="75" rx="20" fill="#00DA78" stroke="#282F34" stroke-width="6"/>
<path d="M246.54 302.843L250.552 309.092C251.185 310.075 252.593 311.058 253.649 311.339L260.828 313.164C265.262 314.288 266.458 318.079 263.573 321.59L258.857 327.277C258.153 328.189 257.59 329.804 257.661 330.927L258.083 338.299C258.364 342.863 255.127 345.18 250.904 343.495L244.007 340.757C242.951 340.336 241.191 340.336 240.136 340.757L233.238 343.495C229.015 345.18 225.778 342.793 226.059 338.299L226.481 330.927C226.552 329.804 225.989 328.119 225.285 327.277L220.569 321.59C217.684 318.079 218.88 314.288 223.314 313.164L230.493 311.339C231.619 311.058 233.027 310.005 233.59 309.092L237.602 302.843C240.136 299.052 244.077 299.052 246.54 302.843Z" fill="#FFB200" stroke="#282F34" stroke-width="6"/>
<defs>
<linearGradient id="paint0_linear_0_5" x1="594.413" y1="598.17" x2="786.408" y2="598.17" gradientUnits="userSpaceOnUse">
<stop stop-color="#FA8148"/>
<stop offset="1" stop-color="#EE5D1F"/>
</linearGradient>
<linearGradient id="paint1_linear_0_5" x1="275.612" y1="645.499" x2="642.633" y2="645.499" gradientUnits="userSpaceOnUse">
<stop stop-color="#FA8148"/>
<stop offset="1" stop-color="#EE5D1F"/>
</linearGradient>
</defs>
</svg>
